<?xml version="1.0" standalone="no"?>
<!DOCTYPE svg PUBLIC "-//W3C//DTD SVG 20010904//EN"
 "http://www.w3.org/TR/2001/REC-SVG-20010904/DTD/svg10.dtd">
<svg version="1.0" xmlns="http://www.w3.org/2000/svg"
 width="558.000000pt" height="558.000000pt" viewBox="0 0 558.000000 558.000000"
 preserveAspectRatio="xMidYMid meet">
<metadata>
Created by potrace 1.11, written by Peter Selinger 2001-2013
</metadata>
<g transform="translate(0.000000,558.000000) scale(0.100000,-0.100000)"
fill="#000000" stroke="none">
<path d="M0 2790 l0 -2790 2790 0 2790 0 0 2790 0 2790 -2790 0 -2790 0 0
-2790z m2210 1840 c0 -5 -8 -10 -17 -10 -15 0 -16 2 -3 10 19 12 20 12 20 0z
m83 3 c-13 -2 -35 -2 -50 0 -16 2 -5 4 22 4 28 0 40 -2 28 -4z m1057 1 c-37
-8 -88 -9 -84 -2 3 4 26 7 52 7 26 -1 40 -3 32 -5z m-980 -19 c33 -19 21 -19
-21 0 -19 8 -27 14 -19 14 8 0 26 -6 40 -14z m835 -13 c-66 -36 -101 -68 -116
-103 -6 -17 -14 -28 -16 -25 -7 7 23 59 49 83 26 25 108 73 123 73 6 0 -12
-13 -40 -28z m233 9 c20 -11 51 -34 68 -53 43 -46 116 -148 106 -148 -4 0 -15
13 -25 29 -29 50 -96 130 -122 147 -14 9 -42 22 -63 30 -20 7 -29 13 -19 14
10 0 34 -9 55 -19z m-1293 -8 c-46 -24 -71 -50 -147 -155 -38 -54 -72 -98 -75
-98 -6 0 4 16 78 115 81 109 129 155 164 154 6 0 -3 -7 -20 -16z m319 -54 c26
-31 71 -109 62 -109 -2 0 -18 24 -34 54 -17 29 -46 66 -64 81 -18 14 -23 22
-12 16 12 -6 34 -25 48 -42z m598 -136 c-3 -16 -7 -22 -10 -15 -4 13 4 42 11
42 2 0 2 -12 -1 -27z m-535 -5 c-3 -8 -6 -5 -6 6 -1 11 2 17 5 13 3 -3 4 -12
1 -19z m3 -78 l-11 -25 6 25 c2 14 5 34 6 45 2 19 2 19 6 0 2 -12 -1 -32 -7
-45z m1276 -175 c68 -93 133 -182 145 -197 11 -16 17 -28 12 -28 -4 0 -15 11
-23 25 -8 13 -73 104 -145 202 -143 194 -168 231 -135 193 13 -14 78 -101 146
-195z m-749 173 c-3 -8 -6 -5 -6 6 -1 11 2 17 5 13 3 -3 4 -12 1 -19z m-1194
-65 c-31 -43 -83 -115 -116 -161 -32 -45 -63 -85 -69 -88 -9 -6 61 93 179 254
30 39 56 72 59 72 3 0 -21 -35 -53 -77z m644 -10 c-9 -15 -59 -86 -111 -158
-53 -71 -135 -183 -181 -247 -47 -65 -88 -118 -91 -118 -3 0 4 12 15 28 11 15
48 66 83 114 35 47 109 149 165 225 56 76 107 151 114 166 7 15 14 25 16 23 3
-2 -2 -17 -10 -33z m573 13 c0 -7 18 -38 41 -69 22 -32 38 -57 35 -57 -2 0
-20 22 -40 48 -36 50 -64 108 -46 97 6 -3 10 -12 10 -19z m120 -176 c17 -22
28 -40 23 -40 -8 1 -67 80 -59 80 2 0 19 -18 36 -40z m113 -157 c21 -29 36
-53 33 -53 -5 0 -98 126 -110 150 -9 18 26 -26 77 -97z m-1665 35 c-13 -18
-70 -96 -126 -173 -99 -136 -161 -216 -131 -168 30 47 271 373 276 373 3 0 -6
-15 -19 -32z m2507 -293 c81 -110 172 -235 203 -277 l57 -78 290 -2 290 -3
-292 -3 -292 -2 -92 128 c-51 70 -129 177 -174 237 -86 117 -190 267 -156 225
11 -14 86 -115 166 -225z m-738 118 c103 -140 256 -348 266 -360 5 -7 7 -13 4
-13 -2 0 -56 69 -118 153 -154 206 -219 297 -214 297 3 0 30 -35 62 -77z
m-1303 -87 c-3 -8 -13 -17 -22 -21 -13 -5 -13 -2 3 15 21 24 26 25 19 6z m-40
-48 c-17 -28 -146 -198 -150 -198 -3 0 1 8 8 18 7 9 42 57 77 105 36 48 66 87
68 87 2 0 1 -6 -3 -12z m-724 -100 c-40 -57 -74 -97 -64 -78 11 22 86 120 91
120 2 0 -10 -19 -27 -42z m554 -133 c-9 -14 -18 -25 -21 -25 -5 0 5 18 20 38
17 22 18 13 1 -13z m-650 3 c-4 -7 -25 -37 -47 -65 l-39 -53 -287 2 -286 3
285 3 285 3 45 59 c41 55 62 77 44 48z m2476 -62 c16 -25 30 -47 30 -50 0 -3
-436 -6 -970 -6 -533 0 -970 2 -970 5 0 11 45 75 53 75 4 0 -4 -16 -19 -35
l-26 -35 961 0 962 0 -31 45 c-17 25 -29 45 -26 45 3 0 19 -20 36 -44z m-3145
-56 c-3 -5 -14 -10 -23 -9 -14 0 -13 2 3 9 27 11 27 11 20 0z m4481 -19 c33
-20 90 -88 82 -96 -3 -3 -16 12 -29 32 -13 21 -42 48 -64 60 -22 12 -35 23
-30 23 6 0 24 -9 41 -19z m-4552 -10 c-40 -24 -72 -69 -83 -117 -6 -26 -9 -31
-10 -16 -2 50 73 152 112 152 7 0 -2 -9 -19 -19z m4643 -133 c-3 -7 -5 -2 -5
12 0 14 2 19 5 13 2 -7 2 -19 0 -25z m10 -65 c-3 -10 -5 -4 -5 12 0 17 2 24 5
18 2 -7 2 -21 0 -30z m0 -85 c-3 -7 -5 -2 -5 12 0 14 2 19 5 13 2 -7 2 -19 0
-25z m-4706 -122 c13 -19 39 -44 59 -55 19 -11 31 -21 25 -21 -42 0 -126 103
-124 154 1 30 1 30 8 -6 4 -20 18 -53 32 -72z m4699 71 c0 -25 -59 -122 -68
-112 -3 3 4 15 15 28 27 30 43 61 43 86 0 12 2 21 5 21 3 0 5 -10 5 -23z m-94
-132 c-11 -8 -25 -15 -30 -15 -6 1 0 7 14 15 32 19 40 18 16 0z m-4473 -22
c-7 -2 -19 -2 -25 0 -7 3 -2 5 12 5 14 0 19 -2 13 -5z m4420 0 c-7 -2 -19 -2
-25 0 -7 3 -2 5 12 5 14 0 19 -2 13 -5z m-4323 -11 c0 -4 -18 -6 -40 -4 -22 2
-40 6 -40 8 0 2 18 4 40 4 22 0 40 -3 40 -8z m1103 -13 c-49 -22 -99 -80 -109
-123 -4 -17 -9 -26 -11 -20 -11 33 58 126 111 149 48 21 56 16 9 -6z m110 14
c-13 -2 -33 -2 -45 0 -13 2 -3 4 22 4 25 0 35 -2 23 -4z m900 0 c-13 -2 -33
-2 -45 0 -13 2 -3 4 22 4 25 0 35 -2 23 -4z m76 -13 c46 -23 97 -81 104 -119
7 -36 0 -40 -9 -5 -10 45 -51 92 -102 119 -26 13 -43 24 -39 25 4 0 25 -9 46
-20z m854 13 c-13 -2 -35 -2 -50 0 -16 2 -5 4 22 4 28 0 40 -2 28 -4z m118
-51 l34 -36 -43 37 c-23 20 -49 37 -56 37 -8 0 -17 4 -21 10 -15 24 55 -15 86
-48z m1089 51 c-19 -3 -38 -10 -42 -16 -5 -8 -8 -6 -8 6 0 14 8 17 43 15 40
-1 40 -1 7 -5z m-2951 -34 c40 -28 81 -94 80 -129 0 -8 -10 10 -22 40 -17 44
-32 62 -71 88 -26 17 -44 32 -39 32 6 0 29 -14 52 -31z m709 11 c-33 -18 -52
-36 -86 -86 -7 -11 -6 -7 2 11 20 42 82 95 111 94 6 0 -6 -9 -27 -19z m909
-10 c-26 -16 -47 -33 -47 -37 0 -5 -10 -19 -21 -33 l-21 -25 19 34 c18 33 86
91 106 91 6 0 -10 -13 -36 -30z m-2912 1 c3 -5 1 -12 -5 -16 -5 -3 -10 1 -10
9 0 18 6 21 15 7z m4205 -17 c0 -8 -5 -12 -10 -9 -6 4 -8 11 -5 16 9 14 15 11
15 -7z m-4203 -36 c-3 -8 -6 -5 -6 6 -1 11 2 17 5 13 3 -3 4 -12 1 -19z m4190
-10 c-3 -8 -6 -5 -6 6 -1 11 2 17 5 13 3 -3 4 -12 1 -19z m-986 -24 c5 -15 8
-29 5 -31 -2 -2 -8 10 -14 26 -13 38 -5 41 9 5z m-3191 6 c0 -5 -2 -10 -4 -10
-3 0 -8 5 -11 10 -3 6 -1 10 4 10 6 0 11 -4 11 -10z m4180 -10 c0 -5 -4 -10
-10 -10 -5 0 -10 5 -10 10 0 6 5 10 10 10 6 0 10 -4 10 -10z m-4172 -70 c0 -9
-3 -7 -8 5 -5 11 -8 29 -8 40 0 16 2 15 8 -5 4 -14 8 -32 8 -40z m1885 40 c-3
-12 -8 -19 -11 -16 -5 6 5 36 12 36 2 0 2 -9 -1 -20z m918 -12 c-3 -21 -6 -26
-9 -15 -3 17 3 47 11 47 2 0 1 -15 -2 -32z m1356 0 c-3 -8 -6 -5 -6 6 -1 11 2
17 5 13 3 -3 4 -12 1 -19z m-1884 -493 c0 -256 -3 -468 -7 -472 -3 -3 -6 209
-6 472 0 263 3 476 6 472 4 -3 7 -216 7 -472z m922 390 c0 -47 -2 -85 -6 -85
-7 0 -10 150 -3 162 9 14 9 10 9 -77z m958 70 c-3 -9 -8 -14 -10 -11 -3 3 -2
9 2 15 9 16 15 13 8 -4z m-3196 -45 c0 -27 -3 -50 -6 -50 -4 0 -7 23 -7 50 0
28 3 50 7 50 4 0 7 -22 6 -50z m-960 8 c-3 -8 -6 -5 -6 6 -1 11 2 17 5 13 3
-3 4 -12 1 -19z m4150 -10 c-3 -8 -6 -5 -6 6 -1 11 2 17 5 13 3 -3 4 -12 1
-19z m-2270 -10 c-3 -8 -6 -5 -6 6 -1 11 2 17 5 13 3 -3 4 -12 1 -19z m-1870
-20 c-3 -8 -6 -5 -6 6 -1 11 2 17 5 13 3 -3 4 -12 1 -19z m4130 -10 c-3 -8 -6
-5 -6 6 -1 11 2 17 5 13 3 -3 4 -12 1 -19z m-4130 -30 c-3 -8 -6 -5 -6 6 -1
11 2 17 5 13 3 -3 4 -12 1 -19z m949 -123 c0 -74 -3 -135 -6 -135 -5 0 -6 259
-1 268 5 10 7 -15 7 -133z m391 93 c-3 -8 -6 -5 -6 6 -1 11 2 17 5 13 3 -3 4
-12 1 -19z m-1330 -10 c-3 -8 -6 -5 -6 6 -1 11 2 17 5 13 3 -3 4 -12 1 -19z
m4110 -10 c-3 -7 -5 -2 -5 12 0 14 2 19 5 13 2 -7 2 -19 0 -25z m-931 -23 c-1
-29 -16 -35 -16 -7 0 16 8 32 16 32 1 0 1 -11 0 -25z m-3179 -7 c-3 -8 -6 -5
-6 6 -1 11 2 17 5 13 3 -3 4 -12 1 -19z m10 -40 c-3 -8 -6 -5 -6 6 -1 11 2 17
5 13 3 -3 4 -12 1 -19z m4090 0 c-3 -8 -6 -5 -6 6 -1 11 2 17 5 13 3 -3 4 -12
1 -19z m-922 -73 c0 -47 -2 -85 -6 -85 -7 0 -10 150 -3 162 9 14 9 10 9 -77z
m-3155 51 c0 -3 -4 -8 -10 -11 -5 -3 -10 -1 -10 4 0 6 5 11 10 11 6 0 10 -2
10 -4z m4077 -18 c-3 -8 -6 -5 -6 6 -1 11 2 17 5 13 3 -3 4 -12 1 -19z m-2240
-7 c0 -11 -5 -18 -9 -15 -4 3 -5 11 -1 19 7 21 12 19 10 -4z m-1840 -23 c-3
-8 -6 -5 -6 6 -1 11 2 17 5 13 3 -3 4 -12 1 -19z m4070 -10 c-3 -8 -6 -5 -6 6
-1 11 2 17 5 13 3 -3 4 -12 1 -19z m-2760 -10 c-3 -8 -6 -5 -6 6 -1 11 2 17 5
13 3 -3 4 -12 1 -19z m-1297 -18 c0 -5 -2 -10 -4 -10 -3 0 -8 5 -11 10 -3 6
-1 10 4 10 6 0 11 -4 11 -10z m4060 6 c0 -3 -4 -8 -10 -11 -5 -3 -10 -1 -10 4
0 6 5 11 10 11 6 0 10 -2 10 -4z m-4063 -48 c-3 -8 -6 -5 -6 6 -1 11 2 17 5
13 3 -3 4 -12 1 -19z m4050 0 c-3 -8 -6 -5 -6 6 -1 11 2 17 5 13 3 -3 4 -12 1
-19z m-3141 -153 c0 -85 -3 -155 -6 -155 -5 0 -6 299 -1 308 5 9 6 -15 7 -153z
m2240 110 c-1 -29 -16 -35 -16 -7 0 16 8 32 16 32 1 0 1 -11 0 -25z m891 3
c-3 -8 -6 -5 -6 6 -1 11 2 17 5 13 3 -3 4 -12 1 -19z m-4019 -68 c0 -9 -3 -7
-8 5 -5 11 -8 29 -8 40 0 16 2 15 8 -5 4 -14 8 -32 8 -40z m4019 28 c-3 -8 -6
-5 -6 6 -1 11 2 17 5 13 3 -3 4 -12 1 -19z m-2740 -20 c-3 -8 -6 -5 -6 6 -1
11 2 17 5 13 3 -3 4 -12 1 -19z m1848 -63 c0 -47 -2 -85 -6 -85 -7 0 -10 150
-3 162 9 14 9 10 9 -77z m882 43 c-3 -8 -6 -5 -6 6 -1 11 2 17 5 13 3 -3 4
-12 1 -19z m-2200 -17 c0 -11 -5 -18 -9 -15 -4 3 -5 11 -1 19 7 21 12 19 10
-4z m-1810 -13 c-3 -8 -6 -5 -6 6 -1 11 2 17 5 13 3 -3 4 -12 1 -19z m4010
-10 c-3 -8 -6 -5 -6 6 -1 11 2 17 5 13 3 -3 4 -12 1 -19z m-4000 -30 c-3 -8
-6 -5 -6 6 -1 11 2 17 5 13 3 -3 4 -12 1 -19z m3990 -10 c-3 -8 -6 -5 -6 6 -1
11 2 17 5 13 3 -3 4 -12 1 -19z m-3979 -63 c0 -16 -2 -15 -8 5 -11 34 -11 60
0 35 5 -11 8 -29 8 -40z m3976 6 c-4 -17 -9 -30 -11 -27 -3 2 -2 19 2 36 9 41
17 33 9 -9z m-2717 -3 c-3 -8 -6 -5 -6 6 -1 11 2 17 5 13 3 -3 4 -12 1 -19z
m1849 -23 c-1 -29 -16 -35 -16 -7 0 16 8 32 16 32 1 0 1 -11 0 -25z m-3099
-57 c-3 -8 -6 -5 -6 6 -1 11 2 17 5 13 3 -3 4 -12 1 -19z m859 -93 c0 -63 -2
-112 -5 -109 -11 11 -9 224 2 224 1 0 2 -52 3 -115z m2239 0 c0 -63 -2 -115
-5 -115 -7 0 -11 211 -4 222 3 4 6 8 7 8 1 0 2 -52 2 -115z m852 83 c-3 -8 -6
-5 -6 6 -1 11 2 17 5 13 3 -3 4 -12 1 -19z m-3937 -23 c0 -8 -4 -15 -10 -15
-5 0 -7 7 -4 15 4 8 8 15 10 15 2 0 4 -7 4 -15z m1767 -4 c0 -11 -5 -18 -9
-15 -4 3 -5 11 -1 19 7 21 12 19 10 -4z m2164 -14 c-10 -9 -11 -8 -5 6 3 10 9
15 12 12 3 -3 0 -11 -7 -18z m-3934 -29 c-3 -8 -6 -5 -6 6 -1 11 2 17 5 13 3
-3 4 -12 1 -19z m1240 0 c-3 -8 -6 -5 -6 6 -1 11 2 17 5 13 3 -3 4 -12 1 -19z
m2690 -10 c-3 -8 -6 -5 -6 6 -1 11 2 17 5 13 3 -3 4 -12 1 -19z m-10 -40 c-3
-8 -6 -5 -6 6 -1 11 2 17 5 13 3 -3 4 -12 1 -19z m-2680 -10 c-3 -8 -6 -5 -6
6 -1 11 2 17 5 13 3 -3 4 -12 1 -19z m-1230 -20 c-3 -7 -5 -2 -5 12 0 14 2 19
5 13 2 -7 2 -19 0 -25z m10 -65 c-3 -10 -5 -2 -5 17 0 19 2 27 5 18 2 -10 2
-26 0 -35z m3890 25 c-3 -8 -6 -5 -6 6 -1 11 2 17 5 13 3 -3 4 -12 1 -19z
m-1220 -20 c-3 -7 -5 -2 -5 12 0 14 2 19 5 13 2 -7 2 -19 0 -25z m-1457 -32
c-6 -20 -15 -38 -19 -41 -5 -2 -1 15 8 40 18 52 28 53 11 1z m587 -69 c18 -21
17 -21 -1 -7 -21 16 -56 86 -55 110 0 8 8 -7 19 -34 10 -26 27 -58 37 -69z
m2090 81 c-3 -8 -6 -5 -6 6 -1 11 2 17 5 13 3 -3 4 -12 1 -19z m-836 -11 c-10
-9 -11 -8 -5 6 3 10 9 15 12 12 3 -3 0 -11 -7 -18z m-340 -55 c11 -15 37 -37
57 -49 20 -13 33 -23 28 -23 -35 0 -127 95 -125 131 0 7 4 3 10 -9 5 -13 18
-36 30 -50z m-2704 36 c-3 -8 -6 -5 -6 6 -1 11 2 17 5 13 3 -3 4 -12 1 -19z
m866 -46 c26 -28 70 -52 112 -63 24 -6 26 -7 7 -8 -52 -2 -163 85 -161 127 0
11 4 9 10 -8 6 -14 20 -36 32 -48z m1244 31 c-28 -53 -103 -104 -149 -102 -19
1 -18 2 7 8 68 17 125 62 141 113 3 11 8 17 11 15 2 -3 -2 -18 -10 -34z m1760
5 c-3 -8 -6 -5 -6 6 -1 11 2 17 5 13 3 -3 4 -12 1 -19z m-836 -5 c-25 -47
-111 -104 -153 -102 -19 1 -18 2 7 8 50 12 93 39 122 76 31 39 39 44 24 18z
m-3034 -25 c-3 -8 -6 -5 -6 6 -1 11 2 17 5 13 3 -3 4 -12 1 -19z m3867 -22
c-3 -15 -8 -25 -11 -23 -2 3 -1 17 3 31 3 15 8 25 11 23 2 -3 1 -17 -3 -31z
m-2714 -1 c-13 -14 -27 -25 -31 -25 -11 0 33 48 45 49 5 1 -1 -10 -14 -24z
m-1143 -42 c-3 -10 -5 -2 -5 17 0 19 2 27 5 18 2 -10 2 -26 0 -35z m1898 -4
c26 -2 27 -2 6 -6 -25 -5 -101 24 -101 38 0 5 15 0 33 -11 17 -11 46 -21 62
-21z m-819 6 c-11 -8 -34 -14 -50 -14 -29 1 -29 2 7 9 20 4 40 10 44 13 3 4 9
7 12 7 3 0 -3 -7 -13 -15z m2771 -17 c-3 -8 -6 -5 -6 6 -1 11 2 17 5 13 3 -3
4 -12 1 -19z m-1014 5 c-7 -2 -21 -2 -30 0 -10 3 -4 5 12 5 17 0 24 -2 18 -5z
m-2826 -35 c-3 -8 -6 -5 -6 6 -1 11 2 17 5 13 3 -3 4 -12 1 -19z m3830 -10
c-3 -8 -6 -5 -6 6 -1 11 2 17 5 13 3 -3 4 -12 1 -19z m-3817 -22 c0 -3 -4 -8
-10 -11 -5 -3 -10 -1 -10 4 0 6 5 11 10 11 6 0 10 -2 10 -4z m3820 -17 c0 -6
-4 -7 -10 -4 -5 3 -10 11 -10 16 0 6 5 7 10 4 6 -3 10 -11 10 -16z m-3823 -31
c-3 -8 -6 -5 -6 6 -1 11 2 17 5 13 3 -3 4 -12 1 -19z m3810 -10 c-3 -8 -6 -5
-6 6 -1 11 2 17 5 13 3 -3 4 -12 1 -19z m-3797 -23 c0 -8 -4 -15 -10 -15 -5 0
-7 7 -4 15 4 8 8 15 10 15 2 0 4 -7 4 -15z m3795 -5 c3 -5 1 -10 -4 -10 -6 0
-11 5 -11 10 0 6 2 10 4 10 3 0 8 -4 11 -10z m-20 -86 c-8 -27 -20 -56 -26
-64 -9 -13 -10 -13 -5 0 2 8 12 39 21 68 9 30 19 52 21 49 2 -2 -3 -26 -11
-53z m-3768 4 c-3 -7 -5 -2 -5 12 0 14 2 19 5 13 2 -7 2 -19 0 -25z m22 -50
c6 -18 7 -28 2 -23 -10 12 -25 55 -18 55 3 0 10 -15 16 -32z m93 -130 c27 -26
68 -55 91 -66 23 -10 53 -24 67 -31 l25 -11 -25 6 c-77 18 -189 101 -223 165
-16 30 -16 31 0 9 9 -14 39 -46 65 -72z m3589 48 c-27 -38 -79 -87 -118 -110
-29 -16 -10 3 32 33 25 18 59 52 75 77 17 24 33 44 36 44 3 0 -9 -20 -25 -44z
m-161 -131 c-14 -8 -32 -14 -40 -14 -8 0 -1 6 15 14 40 18 57 18 25 0z m-3220
-25 c0 -5 -2 -10 -4 -10 -3 0 -8 5 -11 10 -3 6 -1 10 4 10 6 0 11 -4 11 -10z
m3153 3 c-7 -2 -21 -2 -30 0 -10 3 -4 5 12 5 17 0 24 -2 18 -5z m-820 -10
c-425 -2 -1121 -2 -1545 0 -425 1 -78 2 772 2 850 0 1197 -1 773 -2z"/>
</g>
</svg>
